<mxfile host="app.diagrams.net" agent="Mozilla/5.0 (Macintosh; Intel Mac OS X 10_15_7) AppleWebKit/537.36 (KHTML, like Gecko) Chrome/131.0.0.0 Safari/537.36" version="26.0.4">
  <diagram name="第 1 页" id="J-nNQBjBEPOlB2yVzqY-">
    <mxGraphModel dx="1194" dy="789" grid="1" gridSize="10" guides="1" tooltips="1" connect="1" arrows="1" fold="1" page="1" pageScale="1" pageWidth="827" pageHeight="1169" math="0" shadow="0">
      <root>
        <mxCell id="0" />
        <mxCell id="1" parent="0" />
        <mxCell id="Yzot4mm9Q3PbP0i2d22P-1" value="" style="rounded=0;whiteSpace=wrap;html=1;" vertex="1" parent="1">
          <mxGeometry x="160" y="330" width="460" height="230" as="geometry" />
        </mxCell>
        <mxCell id="Yzot4mm9Q3PbP0i2d22P-2" value="用户" style="rounded=0;whiteSpace=wrap;html=1;" vertex="1" parent="1">
          <mxGeometry x="170" y="350" width="90" height="40" as="geometry" />
        </mxCell>
        <mxCell id="Yzot4mm9Q3PbP0i2d22P-3" value="好友&lt;div&gt;uuid&lt;/div&gt;" style="rounded=0;whiteSpace=wrap;html=1;" vertex="1" parent="1">
          <mxGeometry x="260" y="390" width="90" height="40" as="geometry" />
        </mxCell>
        <mxCell id="Yzot4mm9Q3PbP0i2d22P-4" value="备忘录表单" style="rounded=0;whiteSpace=wrap;html=1;" vertex="1" parent="1">
          <mxGeometry x="520" y="350" width="90" height="40" as="geometry" />
        </mxCell>
        <mxCell id="Yzot4mm9Q3PbP0i2d22P-5" value="Electron" style="rounded=0;whiteSpace=wrap;html=1;" vertex="1" parent="1">
          <mxGeometry x="200" y="120" width="120" height="60" as="geometry" />
        </mxCell>
        <mxCell id="Yzot4mm9Q3PbP0i2d22P-6" value="vue3" style="rounded=0;whiteSpace=wrap;html=1;" vertex="1" parent="1">
          <mxGeometry x="430" y="120" width="120" height="60" as="geometry" />
        </mxCell>
        <mxCell id="Yzot4mm9Q3PbP0i2d22P-9" value="" style="edgeStyle=orthogonalEdgeStyle;rounded=0;orthogonalLoop=1;jettySize=auto;html=1;" edge="1" parent="1" source="Yzot4mm9Q3PbP0i2d22P-7" target="Yzot4mm9Q3PbP0i2d22P-3">
          <mxGeometry relative="1" as="geometry" />
        </mxCell>
        <mxCell id="Yzot4mm9Q3PbP0i2d22P-7" value="后端" style="rounded=0;whiteSpace=wrap;html=1;" vertex="1" parent="1">
          <mxGeometry x="310" y="220" width="120" height="60" as="geometry" />
        </mxCell>
        <mxCell id="Yzot4mm9Q3PbP0i2d22P-8" value="" style="endArrow=classic;html=1;rounded=0;entryX=0;entryY=0.5;entryDx=0;entryDy=0;exitX=0.5;exitY=1;exitDx=0;exitDy=0;" edge="1" parent="1" source="Yzot4mm9Q3PbP0i2d22P-7" target="Yzot4mm9Q3PbP0i2d22P-4">
          <mxGeometry width="50" height="50" relative="1" as="geometry">
            <mxPoint x="350" y="340" as="sourcePoint" />
            <mxPoint x="300" y="390" as="targetPoint" />
          </mxGeometry>
        </mxCell>
      </root>
    </mxGraphModel>
  </diagram>
</mxfile>
